# xmcd CD database file
#
# Track frame offsets:
#	150
#	27147
#	70229
#	92725
#	124643
#	171355
#	198496
#	216281
#
# Disc length: 3247 seconds
#
# Revision: 0
# Processed by: cddbd v1.5.2PL0 Copyright (c) Steve Scherf et al.
# Submitted via: CDex 1.51
#
DISCID=6f0cad08
DTITLE=ICP Orchestra - Live In Amsterdam - 8/13/83
DYEAR=1900
DGENRE=Jazz
TTITLE0=Happenings
TTITLE1=Hangover Triangle
TTITLE2=Step Tempest
TTITLE3=12 Bars
TTITLE4=The Gig
TTITLE5=House Party Starting
TTITLE6=Blue Chopsticks
TTITLE7=Change Of Season
EXTD=
EXTT0=
EXTT1=
EXTT2=
EXTT3=
EXTT4=
EXTT5=
EXTT6=
EXTT7=
PLAYORDER=
